# xmcd
#
# Track frame offsets: 
#        183
#        21180
#        33188
#        77083
#        90795
#        132185
#        154255
#        181873
#        207018
#        221378
#        234400
#        257030
#        277363
#
# Disc length: 4082 seconds
#
# Revision: 11
# Processed by: cddbd v1.5.2PL0 Copyright (c) Steve Scherf et al.
# Submitted via: ExactAudioCopy v0.99pb5
#
DISCID=a40ff00d
DTITLE=David Sylvian - Gone To Earth
DYEAR=1986
DGENRE=Jazz
TTITLE0=Taking The Veil
TTITLE1=Laughter and Forgetting
TTITLE2=Before The Bullfight
TTITLE3=Gone To Earth
TTITLE4=Wave
TTITLE5=River Man
TTITLE6=Silver Moon
TTITLE7=The Healing Place
TTITLE8=Answered Prayers
TTITLE9=Where The Railroad Meets The Sea
TTITLE10=The Wooden Cross
TTITLE11=Home
TTITLE12=Upon This Earth
EXTD=
EXTT0=
EXTT1=
EXTT2=
EXTT3=
EXTT4=
EXTT5=
EXTT6=
EXTT7=
EXTT8=
EXTT9=
EXTT10=
EXTT11=
EXTT12=
PLAYORDER=
